<?xml version="1.0" encoding="utf-8"?>
<!-- Generator: Adobe Illustrator 20.1.0, SVG Export Plug-In . SVG Version: 6.00 Build 0)  -->
<svg version="1.1" id="Capa_1" xmlns="http://www.w3.org/2000/svg" xmlns:xlink="http://www.w3.org/1999/xlink" x="0px" y="0px"
	 viewBox="0 0 1080 301" style="enable-background:new 0 0 1080 301;" xml:space="preserve">
<style type="text/css">
	.st0{fill:#3A3A38;}
	.st1{fill:#5D73F5;}
	.st2{fill:#9B999E;}
</style>
<g>
	<g>
		<path class="st0" d="M470.4,173.6c4.2,0,8.3-0.2,11.5-0.4c3.4-0.4,6.3-0.6,8.5-1v-28.7c-2.2-0.6-4.8-1.2-8.1-1.8
			c-3.2-0.4-6.5-0.6-9.9-0.6c-3.2,0-6.3,0.4-9.3,0.8c-3,0.4-5.9,1.4-8.3,2.6c-2.4,1.2-4.2,2.8-5.9,4.8c-1.6,2-2.4,4.6-2.4,7.7
			c0,6.3,2,10.5,6.3,13.1C457.4,172.4,463.1,173.6,470.4,173.6 M468.7,85.3c7.3,0,13.3,1,18.4,2.6c4.8,1.8,9.1,4.2,12.1,7.7
			c3,3.2,5.3,7.1,6.5,11.7c1.2,4.6,1.8,9.7,1.8,14.9v60.6c-4,0.6-9.3,1.6-16,2.6c-6.7,1-13.5,1.4-20.4,1.4c-5.5,0-10.5-0.4-15.6-1.4
			c-5.1-1-9.5-2.6-13.5-4.8c-4-2.4-6.9-5.5-9.3-9.5c-2.4-4-3.4-9.1-3.4-15.6c0-5.5,1.2-10.3,3.6-14.1c2.4-3.8,5.5-6.9,9.3-9.3
			c3.8-2.4,8.3-4,13.1-5.1c4.8-1,9.9-1.6,14.9-1.6c6.9,0,13.5,0.8,20,2.4v-4.8c0-3-0.4-5.7-1-8.5c-0.6-2.6-1.8-5.3-3.4-7.5
			c-1.8-2.2-4-4-7.1-5.5c-3-1.2-6.9-2-11.5-2c-6.1,0-11.3,0.4-15.8,1.2c-4.4,0.8-7.9,1.8-10.3,2.6l-2-14.3c2.4-1,6.3-2,11.9-2.8
			C456.6,85.7,462.5,85.3,468.7,85.3"/>
	</g>
	<polygon class="st0" points="609.7,151 561.5,53.4 541.1,53.4 541.1,182.9 558,182.9 558,85.3 606.1,182.9 626.5,182.9 626.5,53.4 
		609.7,53.4 	"/>
	<polygon class="st0" points="388.3,151 340.3,53.4 337,53.4 320.1,53.4 320.1,182.9 337,182.9 337,85.3 384.9,182.9 405.3,182.9 
		405.3,53.4 388.3,53.4 	"/>
	<polygon class="st0" points="674.8,53.4 664.5,53.4 664.5,182.9 728.1,182.9 728.1,173.6 728.1,172.8 674.8,172.8 	"/>
	<path class="st0" d="M794.8,53.4l-41.2,129.5h10.5l10.7-35.6h49.1l11.1,35.6h10.5L804.3,53.4H794.8z M799.6,70L821,137h-42.8
		L799.6,70z"/>
	<g>
		<path class="st0" d="M926.1,115.2c5.5-2.2,9.7-5.7,12.7-10.5c3-4.8,4.6-10.7,4.6-17.4c0-11.1-3-19.6-9.1-25.3
			c-6.1-5.7-14.9-8.5-26.7-8.5H875v129.5h36.6c11.3,0,20-3.2,26.3-9.9c6.3-6.5,9.1-15.4,9.1-26.7c0-7.7-1.8-14.3-5.9-20
			C937.6,120.5,932.6,116.8,926.1,115.2 M908.9,110.8h-23V63.7h22.2c8.3,0,14.5,1.8,18.6,5.7c4,3.8,6.1,9.7,6.1,17.8
			c0,7.9-2,13.9-6.3,18C922.5,108.8,916.6,110.8,908.9,110.8 M912.2,173h-26.3v-51.7h27.9c7.1,0.2,12.7,2.6,16.8,6.9
			c4,4.2,6.1,10.5,6.1,18.4c0,8.3-2.2,14.7-6.5,19.4C925.7,170.6,919.6,173,912.2,173"/>
		<path class="st0" d="M1051.3,133.8c-2.4-4.6-6.1-8.7-11.1-12.1c-4.8-3.4-12.1-6.9-21.8-9.9c-9.5-3.2-16.4-6.9-20.8-10.7
			c-4.2-4-6.3-9.1-6.3-15.4c0-6.7,2.2-12.1,6.9-16.4c4.4-4.2,10.7-6.3,18.6-6.3c8.1,0,14.5,2.6,19.2,7.7c4.8,5.3,7.1,12.1,7.1,20.4
			v0.6h11.3v-0.6c0-11.3-3.4-20.6-10.5-27.9c-6.9-7.1-16-10.7-26.9-10.7c-10.7,0-19.6,3.2-26.3,9.3c-6.9,6.3-10.3,14.3-10.3,24.2
			c0,9.9,3.4,18,10.5,24.2c5.3,4.6,13.5,8.9,24.4,12.7c10.9,3.6,18.6,7.7,22.4,11.5c4,4,5.9,9.5,5.9,16.4c0,6.9-2.4,12.7-7.1,17
			c-4.8,4.2-11.1,6.3-19,6.3c-9.1,0-16.4-2.6-21.6-7.7s-7.9-12.1-7.9-20.8v-0.8H977v0.6c0,7.9,1.8,14.9,5.3,20.6
			c3.4,5.9,8.5,10.3,14.7,13.5c6.3,3.2,13.1,4.6,20.8,4.6c11.3,0,20.2-3.2,27.1-9.3c6.9-6.3,10.3-14.3,10.3-24.4
			C1054.8,144.1,1053.8,138.4,1051.3,133.8"/>
	</g>
</g>
<path class="st1" d="M125.1,10.6C64.9,10.6,16,59.5,16,119.7c0,60.2,48.9,109.1,109.1,109.1s109.1-48.9,109.1-109.1
	C234.2,59.5,185.3,10.6,125.1,10.6z M157.8,38.9v122.8L96.6,37.2c8.9-3,18.4-4.8,28.5-4.8C136.6,32.4,147.7,34.6,157.8,38.9z
	 M37.8,119.7c0-27.5,12.7-52.1,32.7-68.1v136.2C50.6,171.8,37.8,147.1,37.8,119.7z M92.2,200.5V77.6l61.2,124.4
	c-8.9,3-18.4,4.8-28.5,4.8C113.4,206.9,102.3,204.7,92.2,200.5z M179.7,187.7V51.6c20,16,32.7,40.6,32.7,68.1
	S199.5,171.8,179.7,187.7z"/>
<g>
	<path class="st2" d="M313.7,230.4c-0.2-0.7,0.2-1.3,0.9-1.3h4.8c0.4,0,0.8,0.4,0.9,0.7l5.5,20.9h0.2l8.3-21.6
		c0.1-0.3,0.4-0.6,0.9-0.6h0.9c0.5,0,0.8,0.3,0.9,0.6l8.4,21.6h0.2l5.4-20.9c0.1-0.4,0.5-0.7,0.9-0.7h4.8c0.7,0,1.2,0.5,0.9,1.3
		l-9.9,35.3c-0.1,0.4-0.5,0.7-0.9,0.7h-0.8c-0.5,0-0.8-0.3-0.9-0.6l-9.4-23.8h-0.3l-9.3,23.8c-0.2,0.3-0.4,0.6-0.9,0.6h-0.8
		c-0.4,0-0.8-0.3-0.9-0.7L313.7,230.4z"/>
	<path class="st2" d="M364,230.1c0-0.5,0.4-1,1-1h21.4c0.6,0,1,0.5,1,1v4.3c0,0.5-0.4,1-1,1h-15.5v8.6h13c0.5,0,1,0.5,1,1v4.4
		c0,0.6-0.5,1-1,1h-13v9.2h15.5c0.6,0,1,0.5,1,1v4.3c0,0.5-0.4,1-1,1H365c-0.6,0-1-0.5-1-1V230.1z"/>
	<path class="st2" d="M422.7,228.6c5.3,0,9.1,1.7,12.7,4.9c0.5,0.4,0.5,1,0.1,1.5l-3.2,3.3c-0.4,0.4-0.9,0.4-1.3,0
		c-2.2-1.9-5.1-3.1-8.1-3.1c-6.7,0-11.7,5.6-11.7,12.2c0,6.6,5,12.1,11.8,12.1c3.1,0,5.8-1.2,8-3c0.4-0.4,1-0.3,1.3,0l3.3,3.4
		c0.4,0.4,0.3,1-0.1,1.4c-3.6,3.5-8.1,5.1-12.8,5.1c-10.5,0-18.9-8.3-18.9-18.8S412.2,228.6,422.7,228.6z"/>
	<path class="st2" d="M442.4,230.1c0-0.5,0.4-1,1-1h15c6.3,0,11.4,5,11.4,11.3c0,4.8-3.2,8.8-7.8,10.6l7.2,13.3
		c0.4,0.7,0,1.5-0.9,1.5h-5.5c-0.5,0-0.7-0.3-0.8-0.5l-7-13.9h-5.8v13.4c0,0.5-0.5,1-1,1h-4.8c-0.6,0-1-0.5-1-1V230.1z M457.8,245.9
		c2.8,0,5.2-2.4,5.2-5.4c0-2.8-2.4-5.1-5.2-5.1h-8.6v10.4H457.8z"/>
	<path class="st2" d="M472.5,264.5l16.3-35.3c0.2-0.3,0.4-0.6,0.9-0.6h0.5c0.5,0,0.7,0.3,0.9,0.6l16.2,35.3c0.3,0.7-0.1,1.4-0.9,1.4
		h-4.6c-0.8,0-1.2-0.3-1.5-1l-2.6-5.7h-15.7l-2.6,5.7c-0.2,0.5-0.7,1-1.5,1h-4.6C472.6,265.9,472.2,265.2,472.5,264.5z M495.2,253.3
		l-5.2-11.5h-0.2l-5.1,11.5H495.2z"/>
	<path class="st2" d="M512.1,230.1c0-0.5,0.4-1,1-1h21.4c0.6,0,1,0.5,1,1v4.3c0,0.5-0.4,1-1,1h-15.5v9.9h13c0.5,0,1,0.5,1,1v4.3
		c0,0.5-0.5,1-1,1h-13v13.3c0,0.5-0.5,1-1,1h-4.8c-0.6,0-1-0.5-1-1V230.1z"/>
	<path class="st2" d="M546.6,235.4h-8c-0.6,0-1-0.5-1-1v-4.3c0-0.5,0.4-1,1-1h22.9c0.6,0,1,0.5,1,1v4.3c0,0.5-0.4,1-1,1h-8v29.4
		c0,0.5-0.5,1-1,1h-4.9c-0.5,0-1-0.5-1-1V235.4z"/>
	<path class="st2" d="M579.6,230.1c0-0.5,0.4-1,0.9-1H593c10.1,0,18.4,8.2,18.4,18.3c0,10.2-8.3,18.4-18.4,18.4h-12.4
		c-0.5,0-0.9-0.5-0.9-1V230.1z M592.4,259.5c6.8,0,11.8-5.1,11.8-12c0-6.8-5-12-11.8-12h-6v24H592.4z"/>
	<path class="st2" d="M618.3,230.1c0-0.5,0.5-1,1-1h4.9c0.5,0,1,0.5,1,1v34.7c0,0.5-0.5,1-1,1h-4.9c-0.5,0-1-0.5-1-1V230.1z"/>
	<path class="st2" d="M651,228.6c4.7,0,9.2,1.8,12.8,4.9c0.4,0.4,0.5,1,0.1,1.5l-3.3,3.4c-0.4,0.4-0.9,0.4-1.4,0c-2.3-2-5-3-7.9-3
		c-6.6,0-11.8,5.6-11.8,12.2c0,6.5,5.2,12,11.8,12c2.9,0,5.2-0.9,6.2-1.3v-4.5h-4.2c-0.6,0-1-0.4-1-0.9v-4.1c0-0.6,0.4-1,1-1h10.1
		c0.5,0,0.9,0.5,0.9,1v13.4c0,0.4-0.2,0.7-0.4,0.8c0,0-5.4,3.4-13,3.4c-10.4,0-18.8-8.3-18.8-18.8S640.5,228.6,651,228.6z"/>
	<path class="st2" d="M672.1,230.1c0-0.5,0.5-1,1-1h4.9c0.5,0,1,0.5,1,1v34.7c0,0.5-0.5,1-1,1h-4.9c-0.5,0-1-0.5-1-1V230.1z"/>
	<path class="st2" d="M693.5,235.4h-8c-0.6,0-1-0.5-1-1v-4.3c0-0.5,0.4-1,1-1h22.9c0.6,0,1,0.5,1,1v4.3c0,0.5-0.4,1-1,1h-8v29.4
		c0,0.5-0.5,1-1,1h-4.9c-0.5,0-1-0.5-1-1V235.4z"/>
	<path class="st2" d="M708.1,264.5l16.3-35.3c0.2-0.3,0.4-0.6,0.9-0.6h0.5c0.5,0,0.7,0.3,0.9,0.6l16.2,35.3c0.3,0.7-0.1,1.4-0.9,1.4
		h-4.6c-0.8,0-1.2-0.3-1.5-1l-2.6-5.7h-15.7l-2.6,5.7c-0.2,0.5-0.7,1-1.5,1H709C708.2,265.9,707.8,265.2,708.1,264.5z M730.8,253.3
		l-5.2-11.5h-0.2l-5.1,11.5H730.8z"/>
	<path class="st2" d="M747.7,230.1c0-0.5,0.4-1,1-1h4.8c0.5,0,1,0.5,1,1v29.4h13.4c0.6,0,1,0.5,1,1v4.3c0,0.5-0.4,1-1,1h-19.2
		c-0.6,0-1-0.5-1-1V230.1z"/>
	<path class="st2" d="M785.8,230.1c0-0.5,0.4-1,1-1h12.3c6.5,0,11.8,5.2,11.8,11.6c0,6.5-5.3,11.8-11.7,11.8h-6.6v12.3
		c0,0.5-0.5,1-1,1h-4.8c-0.6,0-1-0.5-1-1V230.1z M798.7,246.1c2.9,0,5.4-2.4,5.4-5.5c0-2.9-2.5-5.1-5.4-5.1h-6.1v10.6H798.7z"/>
	<path class="st2" d="M816.8,230.1c0-0.5,0.4-1,1-1h15c6.3,0,11.4,5,11.4,11.3c0,4.8-3.2,8.8-7.8,10.6l7.2,13.3
		c0.4,0.7,0,1.5-0.9,1.5h-5.5c-0.5,0-0.7-0.3-0.8-0.5l-7-13.9h-5.8v13.4c0,0.5-0.5,1-1,1h-4.8c-0.6,0-1-0.5-1-1V230.1z M832.3,245.9
		c2.8,0,5.2-2.4,5.2-5.4c0-2.8-2.4-5.1-5.2-5.1h-8.6v10.4H832.3z"/>
	<path class="st2" d="M868,228.6c10.5,0,18.9,8.5,18.9,18.9s-8.4,18.8-18.9,18.8s-18.8-8.3-18.8-18.8S857.5,228.6,868,228.6z
		 M868,259.6c6.6,0,12.1-5.4,12.1-12c0-6.6-5.5-12.1-12.1-12.1s-12,5.5-12,12.1C856,254.2,861.4,259.6,868,259.6z"/>
	<path class="st2" d="M893.8,230.1c0-0.5,0.4-1,0.9-1h12.4c10.1,0,18.4,8.2,18.4,18.3c0,10.2-8.3,18.4-18.4,18.4h-12.4
		c-0.5,0-0.9-0.5-0.9-1V230.1z M906.5,259.5c6.8,0,11.8-5.1,11.8-12c0-6.8-5-12-11.8-12h-6v24H906.5z"/>
	<path class="st2" d="M932,230.1c0-0.5,0.5-1,1-1h5c0.6,0,1,0.5,1,1v21.5c0,4.5,3,8,7.6,8s7.7-3.5,7.7-7.9v-21.5c0-0.5,0.4-1,1-1h5
		c0.5,0,1,0.5,1,1V252c0,8-6.4,14.4-14.6,14.4c-8.2,0-14.6-6.5-14.6-14.4V230.1z"/>
	<path class="st2" d="M986.5,228.6c5.3,0,9.1,1.7,12.7,4.9c0.5,0.4,0.5,1,0.1,1.5l-3.2,3.3c-0.4,0.4-0.9,0.4-1.3,0
		c-2.2-1.9-5.1-3.1-8.1-3.1c-6.7,0-11.7,5.6-11.7,12.2c0,6.6,5,12.1,11.8,12.1c3.1,0,5.8-1.2,8-3c0.4-0.4,1-0.3,1.3,0l3.3,3.4
		c0.4,0.4,0.3,1-0.1,1.4c-3.6,3.5-8.1,5.1-12.8,5.1c-10.5,0-18.9-8.3-18.9-18.8S976,228.6,986.5,228.6z"/>
	<path class="st2" d="M1011.1,235.4h-8c-0.6,0-1-0.5-1-1v-4.3c0-0.5,0.4-1,1-1h22.9c0.6,0,1,0.5,1,1v4.3c0,0.5-0.4,1-1,1h-8v29.4
		c0,0.5-0.5,1-1,1h-4.9c-0.5,0-1-0.5-1-1V235.4z"/>
	<path class="st2" d="M1030.3,260.7l1.9-3.3c0.4-0.7,1.3-0.7,1.8-0.4c0.3,0.2,4.5,3.3,7.9,3.3c2.7,0,4.8-1.8,4.8-4
		c0-2.7-2.3-4.5-6.7-6.3c-4.9-2-9.9-5.1-9.9-11.3c0-4.7,3.5-10.1,11.8-10.1c5.4,0,9.4,2.7,10.5,3.5c0.5,0.3,0.7,1.2,0.3,1.7l-2,3
		c-0.4,0.6-1.2,1-1.8,0.6c-0.4-0.3-4.4-2.9-7.3-2.9c-3,0-4.6,2-4.6,3.7c0,2.5,1.9,4.1,6.2,5.9c5.1,2,11,5.1,11,11.9
		c0,5.4-4.7,10.4-12.1,10.4c-6.6,0-10.5-3.1-11.5-4.1C1030.1,261.8,1029.8,261.6,1030.3,260.7z"/>
</g>
</svg>
